HIERARCHY
ROOT Hips
{
 OFFSET 0.000000 0.000000 0.000000
 CHANNELS 6 Xposition Yposition Zposition Yrotation Xrotation Zrotation
 JOINT Chest
 {
  OFFSET 0.000000 9.588913 -0.003946
  CHANNELS 3 Yrotation Xrotation Zrotation
  JOINT Chest2
  {
   OFFSET 0.000000 9.541882 0.008053
   CHANNELS 3 Yrotation Xrotation Zrotation
   JOINT Chest3
   {
    OFFSET 0.000000 9.501360 0.000000
    CHANNELS 3 Yrotation Xrotation Zrotation
    JOINT Chest4
    {
     OFFSET 0.000000 9.491660 0.000000
     CHANNELS 3 Yrotation Xrotation Zrotation
     JOINT Neck
     {
      OFFSET 0.000000 14.331917 0.000000
      CHANNELS 3 Yrotation Xrotation Zrotation
      JOINT Head
      {
       OFFSET 0.000000 8.884799 0.017034
       CHANNELS 3 Yrotation Xrotation Zrotation
       End Site
       {
        OFFSET 0.000000 16.896195 0.008993
       }
      }
     }
     JOINT RightCollar
     {
      OFFSET -2.923010 9.499495 0.000000
      CHANNELS 3 Yrotation Xrotation Zrotation
      JOINT RightShoulder
      {
       OFFSET -13.795216 0.000000 0.000000
       CHANNELS 3 Yrotation Xrotation Zrotation
       JOINT RightElbow
       {
        OFFSET -30.272209 0.000000 0.000000
        CHANNELS 3 Yrotation Xrotation Zrotation
        JOINT RightWrist
        {
         OFFSET -24.478199 0.000000 0.000000
         CHANNELS 3 Yrotation Xrotation Zrotation
         End Site
         {
          OFFSET -18.090752 0.000000 0.000000
         }
        }
       }
      }
     }
     JOINT LeftCollar
     {
      OFFSET 2.923010 9.499495 0.000000
      CHANNELS 3 Yrotation Xrotation Zrotation
      JOINT LeftShoulder
      {
       OFFSET 13.795216 0.000000 0.000000
       CHANNELS 3 Yrotation Xrotation Zrotation
       JOINT LeftElbow
       {
        OFFSET 30.272209 0.000000 0.000000
        CHANNELS 3 Yrotation Xrotation Zrotation
        JOINT LeftWrist
        {
         OFFSET 24.478199 0.000000 0.000000
         CHANNELS 3 Yrotation Xrotation Zrotation
         End Site
         {
          OFFSET 18.090752 0.000000 0.000000
         }
        }
       }
      }
     }
    }
   }
  }
 }
 JOINT RightHip
 {
  OFFSET -7.826875 0.019532 0.001973
  CHANNELS 3 Yrotation Xrotation Zrotation
  JOINT RightKnee
  {
   OFFSET 0.000000 -40.546152 -0.001885
   CHANNELS 3 Yrotation Xrotation Zrotation
   JOINT RightAnkle
   {
    OFFSET 0.000000 -39.417092 -0.003189
    CHANNELS 3 Yrotation Xrotation Zrotation
    JOINT RightToe
    {
     OFFSET 0.000000 -7.579396 17.243563
     CHANNELS 3 Yrotation Xrotation Zrotation
     End Site
     {
      OFFSET 0.000000 -1.500329 6.694466
     }
    }
   }
  }
 }
 JOINT LeftHip
 {
  OFFSET 7.826875 0.019532 0.001973
  CHANNELS 3 Yrotation Xrotation Zrotation
  JOINT LeftKnee
  {
   OFFSET 0.000000 -40.546152 -0.001885
   CHANNELS 3 Yrotation Xrotation Zrotation
   JOINT LeftAnkle
   {
    OFFSET 0.000000 -39.417092 -0.003189
    CHANNELS 3 Yrotation Xrotation Zrotation
    JOINT LeftToe
    {
     OFFSET 0.000000 -7.579396 17.243563
     CHANNELS 3 Yrotation Xrotation Zrotation
     End Site
     {
      OFFSET 0.000000 -1.500329 6.694466
     }
    }
   }
  }
 }
}
MOTION
Frames: 8
Frame Time: 0.008333
-5.354688 89.443922 -2.161503 -121.574061 -2.282432 3.546602 8.348643 9.451435 3.931014 4.633182 5.483474 1.839081 5.825578 6.829449 2.370745 4.633187 5.483475 1.839078 -13.220904 8.703838 -1.096535 -15.202082 -16.427340 2.109454 13.800760 -5.755996 -9.991285 -12.338276 -48.018307 58.758497 16.107227 -50.652042 13.846399 4.050318 -18.620988 2.761523 -9.678282 -2.723777 2.678115 6.118388 -4.501777 -92.542771 -5.366762 -12.218014 -12.071443 -4.722358 -2.239200 1.558713 -17.901517 3.236012 -2.588072 3.516546 -0.204485 -0.559593 1.652994 -1.036705 -0.526393 -0.049145 0.475964 -0.012101 5.592537 -1.122274 -3.035151 -7.281617 3.484441 -2.605460 -4.528456 1.096872 -0.168020 0.047237 -0.248703 -0.060743
-5.478760 89.442980 -2.204402 -121.739674 -2.412182 3.472606 8.342045 9.368008 3.869312 4.634296 5.434699 1.819181 5.826311 6.768746 2.345188 4.634300 5.434701 1.819178 -13.181942 8.780880 -1.107532 -15.140651 -16.341747 2.083164 13.656436 -5.672202 -9.850173 -12.351208 -47.697375 58.746088 16.356873 -49.933344 14.315276 4.255586 -18.635810 2.656343 -9.707089 -2.710494 2.635612 6.232665 -4.433609 -92.513539 -5.350534 -12.216894 -11.996597 -4.713973 -2.236529 1.554862 -17.831470 3.438363 -2.608232 3.537752 -0.176221 -0.543281 1.681405 -1.093755 -0.503904 -0.042986 0.459413 -0.008871 5.613938 -0.897144 -2.976792 -7.245686 3.514283 -2.562570 -4.466257 0.931457 -0.122309 0.033497 -0.230690 -0.072817
-5.603995 89.442713 -2.248454 -121.911096 -2.543323 3.398861 8.334121 9.282975 3.805974 4.634025 5.384433 1.797550 5.825283 6.706209 2.317426 4.634030 5.384435 1.797546 -13.141649 8.861834 -1.116351 -15.077833 -16.251811 2.059001 13.512334 -5.563595 -9.711411 -12.307050 -47.346986 58.681411 16.635260 -49.267698 14.806383 4.476462 -18.676085 2.542010 -9.727435 -2.694784 2.588269 6.346859 -4.363419 -92.483230 -5.328739 -12.221173 -11.916537 -4.704686 -2.227761 1.549378 -17.756206 3.643470 -2.627339 3.557460 -0.149732 -0.529704 1.712865 -1.149318 -0.480460 -0.037743 0.440244 -0.005543 5.643478 -0.661616 -2.918337 -7.198073 3.531170 -2.518461 -4.410825 0.772718 -0.079945 0.022172 -0.214823 -0.080707
-5.730276 89.443179 -2.293997 -122.084225 -2.677155 3.325751 8.325589 9.198129 3.740808 4.632186 5.333000 1.773777 5.822261 6.642250 2.286948 4.632191 5.333002 1.773773 -13.100323 8.950206 -1.120980 -15.014213 -16.153530 2.039275 13.366938 -5.430413 -9.566920 -12.204048 -46.953697 58.558994 16.983902 -48.679595 15.299061 4.659966 -18.701273 2.435724 -9.739781 -2.678144 2.541052 6.464343 -4.289340 -92.453256 -5.305695 -12.218138 -11.831201 -4.691353 -2.222689 1.541653 -17.682007 3.851376 -2.645839 3.573255 -0.122675 -0.518618 1.749523 -1.204834 -0.456143 -0.032684 0.418467 -0.002658 5.680764 -0.418214 -2.857858 -7.147831 3.540975 -2.477131 -4.359809 0.618859 -0.041315 0.011777 -0.201562 -0.084045
-5.857174 89.444409 -2.337621 -122.248792 -2.802019 3.270920 8.307245 9.107649 3.655021 4.628453 5.279949 1.746974 5.816822 6.576318 2.252631 4.628459 5.279952 1.746969 -13.057198 9.048843 -1.120638 -14.948760 -16.043732 2.024593 13.218457 -5.281559 -9.409067 -12.049202 -46.523129 58.393125 17.421406 -48.164505 15.760279 4.767105 -18.683042 2.362450 -9.745859 -2.662874 2.499202 6.590003 -4.208531 -92.424252 -5.285225 -12.204912 -11.743647 -4.674857 -2.221527 1.531299 -17.620449 4.038877 -2.680848 3.587026 -0.090684 -0.505187 1.788590 -1.233627 -0.432421 -0.026263 0.368992 0.000401 5.719106 -0.180043 -2.813845 -7.100131 3.546767 -2.439594 -4.320259 0.456797 -0.010717 0.010763 -0.178157 -0.079679
-5.982733 89.446016 -2.385244 -122.414925 -2.927349 3.199835 8.292444 9.017858 3.586351 4.622287 5.224916 1.717452 5.808295 6.507955 2.214854 4.622293 5.224918 1.717446 -13.009626 9.159158 -1.118462 -14.877126 -15.921021 2.010541 13.069511 -5.127684 -9.239437 -11.869732 -46.071381 58.215999 17.940235 -47.684070 16.170690 4.791279 -18.620292 2.335783 -9.745567 -2.647911 2.460352 6.725257 -4.122626 -92.393887 -5.263007 -12.190340 -11.658332 -4.657822 -2.217045 1.519330 -17.556633 4.232773 -2.697607 3.601279 -0.052861 -0.490731 1.827377 -1.296784 -0.411213 -0.020355 0.346192 0.002206 5.770507 0.058202 -2.749598 -7.055249 3.548740 -2.404470 -4.286939 0.313428 0.017686 0.004825 -0.170696 -0.075951
-6.107698 89.447934 -2.433887 -122.578345 -3.049392 3.129646 8.273495 8.926300 3.517790 4.612897 5.168567 1.686721 5.795719 6.437979 2.175507 4.612903 5.168569 1.686715 -12.955245 9.277559 -1.118898 -14.795501 -15.789663 1.991444 12.922601 -4.981362 -9.065765 -11.713793 -45.614118 58.060807 18.506134 -47.182075 16.552261 4.757762 -18.524474 2.343794 -9.738215 -2.632757 2.420086 6.869821 -4.036414 -92.362144 -5.231366 -12.176063 -11.576073 -4.643472 -2.211278 1.509878 -17.490316 4.421162 -2.712782 3.616216 -0.010518 -0.476243 1.861678 -1.361938 -0.389592 -0.014990 0.322442 0.003003 5.832602 0.291743 -2.682707 -7.014125 3.553148 -2.372140 -4.269747 0.170981 0.043117 -0.001432 -0.165334 -0.071810
-6.231671 89.449889 -2.483436 -122.737895 -3.167868 3.058155 8.250545 8.832866 3.450535 4.600407 5.110784 1.655616 5.779261 6.366229 2.135635 4.600413 5.110786 1.655609 -12.893438 9.398635 -1.123690 -14.703222 -15.655838 1.965325 12.779439 -4.852483 -8.888697 -11.621931 -45.171593 57.943902 19.072965 -46.621159 16.936953 4.700628 -18.409104 2.370682 -9.725136 -2.616442 2.378906 7.023945 -3.951093 -92.330869 -5.190695 -12.158016 -11.495869 -4.633155 -2.207357 1.507001 -17.418416 4.604967 -2.723735 3.632251 0.035204 -0.462145 1.889025 -1.427779 -0.368590 -0.010568 0.297908 0.003907 5.905152 0.516929 -2.613435 -6.975773 3.566635 -2.343782 -4.257561 0.025393 0.069463 -0.007222 -0.161278 -0.067542
